<svg xmlns="http://www.w3.org/2000/svg" viewBox="0 0 64 64">
  <circle cx="32" cy="32" r="32" fill="#0a0a0a"/>
  <g fill="#1ED760">
    <circle cx="21" cy="42" r="4.5"/>
    <circle cx="32" cy="42" r="4.5"/>
    <circle cx="43" cy="42" r="4.5"/>
    <path d="M18 30.5 C20 27.5 23.5 26 27 26 C30.5 26 34 27.5 36 30.5 C34 31.5 31.5 32 29 32 C25.5 32 22 31.5 18 30.5 Z"/>
    <path d="M28 23 C30.5 21.5 33.5 21 36.5 21.5 C40 22 43 23.5 45 26 C43 26.5 41 27 39 27 C35 27 31 26.5 28 25 C27.5 24 27.5 23.5 28 23 Z"/>
    <path d="M31 37 C33.5 38 36.5 38.5 39.5 38 C42.5 37.5 45 36.5 47 35.5 C46 37 44.5 38 43 39 C41 39.5 39 40 37 40 C34.5 40 32 39.5 31 38.5 C30.5 38 30.5 37.5 31 37 Z"/>
  </g>
</svg>
